# xmcd
#
# Track frame offsets:
#	150
#	16880
#	30205
#	43513
#	55288
#	68765
#	81828
#	94670
#	109141
#	124433
#	136560
#	152302
#	165013
#	177878
#	190368
#	203862
#	217275
#	231641
#	244550
#	256877
#	270388
#	282401
#	294941
#	307955
#	322277
#	336260
#
# Disc length: 4638 seconds
#
# Revision: 1
# Processed by: cddbd v1.5.2PL0 Copyright (c) Steve Scherf et al.
# Submitted via: audiograbber 1.83.01
#
DISCID=6d121c1a
DTITLE=Billie Holiday - 2009 - 101 Hits CD1
DYEAR=2009
DGENRE=Blues
TTITLE0=Stormy weather
TTITLE1=My man
TTITLE2=Love for sale
TTITLE3=Ghost of yesterday
TTITLE4=Moonglow
TTITLE5=East of the sun (West of the moon)
TTITLE6=St.Louis Blues
TTITLE7=I can't face the music
TTITLE8=Don't explain
TTITLE9=I hear music
TTITLE10=Blue moon
TTITLE11=Falling in love again
TTITLE12=Everything happens for the best
TTITLE13=If the moon turns green
TTITLE14=That's all I ask for you
TTITLE15=I'll never fail you
TTITLE16=The same old story
TTITLE17=I wish I had you
TTITLE18=The very thought of you
TTITLE19=Easy to love
TTITLE20=Back in your own backyard
TTITLE21=I don't know if I'm coming or going
TTITLE22=I only have eyes for you
TTITLE23=As time goes by
TTITLE24=What is this thing called love
TTITLE25=Let's call the whole thing off
EXTD=
EXTT0=
EXTT1=
EXTT2=
EXTT3=
EXTT4=
EXTT5=
EXTT6=
EXTT7=
EXTT8=
EXTT9=
EXTT10=
EXTT11=
EXTT12=
EXTT13=
EXTT14=
EXTT15=
EXTT16=
EXTT17=
EXTT18=
EXTT19=
EXTT20=
EXTT21=
EXTT22=
EXTT23=
EXTT24=
EXTT25=
PLAYORDER=
